<svg width="39" height="39" viewBox="0 0 39 39" fill="none" xmlns="http://www.w3.org/2000/svg">
<path d="M26.3555 39C26.987 39 27.498 38.489 27.498 37.8574C27.498 37.2259 26.987 36.7148 26.3555 36.7148H12.6445C12.013 36.7148 11.502 37.2259 11.502 37.8574C11.502 38.489 12.013 39 12.6445 39H26.3555Z" fill="#04BDAF"/>
<path d="M19.5 9.2168C16.3501 9.2168 13.7871 11.7798 13.7871 14.9297C13.7871 18.0796 16.3501 20.6426 19.5 20.6426C22.6499 20.6426 25.2129 18.0796 25.2129 14.9297C25.2129 11.7798 22.6499 9.2168 19.5 9.2168ZM21.7852 16.0723H20.6426V17.2148C20.6426 17.8464 20.1315 18.3574 19.5 18.3574C18.8685 18.3574 18.3574 17.8464 18.3574 17.2148V16.0723H17.2148C16.5833 16.0723 16.0723 15.5612 16.0723 14.9297C16.0723 14.2981 16.5833 13.7871 17.2148 13.7871H18.3574V12.6445C18.3574 12.013 18.8685 11.502 19.5 11.502C20.1315 11.502 20.6426 12.013 20.6426 12.6445V13.7871H21.7852C22.4167 13.7871 22.9277 14.2981 22.9277 14.9297C22.9277 15.5612 22.4167 16.0723 21.7852 16.0723Z" fill="#04BDAF"/>
<path d="M19.4955 0C12.2975 0 4.64648 4.85512 4.64648 13.7871C4.64648 20.6861 8.1769 24.0896 14.027 29.6016C15.4396 30.9328 16.9984 32.4023 18.6921 34.0949C18.9153 34.3181 19.2077 34.4297 19.4999 34.4297C19.7922 34.4297 20.0846 34.3181 20.3077 34.0949C22.0015 32.4022 23.5603 30.9327 24.9729 29.6016C30.8231 24.0896 34.3535 20.6861 34.3535 13.7871C34.3535 4.85512 26.698 0 19.4955 0ZM19.5 22.9277C15.0903 22.9277 11.502 19.3394 11.502 14.9297C11.502 10.52 15.0903 6.93164 19.5 6.93164C23.9097 6.93164 27.498 10.52 27.498 14.9297C27.498 19.3394 23.9097 22.9277 19.5 22.9277Z" fill="#04BDAF"/>
</svg>
