<svg width="375" height="812" viewBox="0 0 375 812" fill="none" xmlns="http://www.w3.org/2000/svg">
<g clip-path="url(#clip0_41_3)">
<rect width="375" height="812" rx="21" fill="#FDFDFD"/>
<rect x="9" y="9" width="357" height="423" rx="15" fill="url(#paint0_linear_41_3)"/>
<rect x="9" y="369" width="357" height="435" rx="15" fill="#F6FEFB"/>
<g filter="url(#filter0_d_41_3)">
<rect x="38" y="406" width="139" height="139" rx="15" fill="white"/>
<rect x="39" y="407" width="137" height="137" rx="14" stroke="white" stroke-width="2"/>
</g>
<g clip-path="url(#clip1_41_3)">
<path d="M126.205 448.231C122.601 446.789 121.213 444.35 120.097 442.391C119.209 440.831 118.37 439.358 116.661 439.048C114.88 438.721 112.574 439.823 108.643 442.912V438.645C109.97 438.172 110.928 436.915 110.928 435.428C110.928 433.538 109.39 432 107.5 432C105.61 432 104.072 433.538 104.072 435.428C104.072 436.915 105.03 438.172 106.357 438.645V442.911C102.014 439.496 100.551 438.642 98.3393 439.048C96.6299 439.358 95.7908 440.831 94.9026 442.391C93.7869 444.35 92.3988 446.789 88.7947 448.231C88.2859 448.434 87.9936 448.97 88.0962 449.507C88.2012 450.045 88.6721 450.434 89.2188 450.434H91.5039C91.5531 450.434 96.4849 450.362 99.0188 444.281C99.262 443.699 99.9315 443.433 100.513 443.665C101.095 443.908 101.371 444.578 101.128 445.16C100.088 447.655 98.6991 449.314 97.3002 450.434H99.8743C100.938 449.528 101.787 448.375 101.787 447.006C101.787 446.374 102.298 445.863 102.93 445.863C103.561 445.863 104.072 446.374 104.072 447.006C104.072 448.318 103.626 449.458 102.952 450.434H106.357V452.719H102.93C101.04 452.719 99.502 454.256 99.502 456.146C99.502 458.037 101.04 459.574 102.93 459.574H106.357V461.859H105.215C103.325 461.859 101.787 463.397 101.787 465.287C101.787 467.177 103.325 468.715 105.215 468.715H106.357V469.857C106.357 470.489 106.868 471 107.5 471C108.132 471 108.643 470.489 108.643 469.857V468.715H109.785C110.417 468.715 110.928 468.204 110.928 467.572C110.928 466.941 110.417 466.43 109.785 466.43H108.643V464.145H109.785C111.675 464.145 113.213 462.607 113.213 460.717C113.213 458.827 111.675 457.289 109.785 457.289H108.643V455.004H112.07C113.362 455.004 114.476 454.277 115.06 453.219C114.419 452.805 113.77 452.318 113.178 451.748C113.092 452.293 112.639 452.719 112.07 452.719H108.643V450.434H112.048C111.374 449.458 110.928 448.318 110.928 447.006C110.928 446.374 111.439 445.863 112.07 445.863C112.702 445.863 113.213 446.374 113.213 447.006C113.213 448.375 114.062 449.528 115.126 450.434H117.7C116.301 449.314 114.912 447.655 113.872 445.16C113.629 444.578 113.905 443.908 114.487 443.665C115.068 443.433 115.738 443.699 115.981 444.281C118.515 450.362 123.447 450.434 123.496 450.434H125.781C126.328 450.434 126.799 450.045 126.904 449.507C127.006 448.97 126.714 448.434 126.205 448.231ZM106.358 466.43H105.215C104.586 466.43 104.072 465.916 104.072 465.287C104.072 464.658 104.586 464.145 105.215 464.145H106.358V466.43ZM106.358 457.289H102.93C102.3 457.289 101.787 456.776 101.787 456.146C101.787 455.517 102.3 455.004 102.93 455.004H106.358V457.289ZM109.785 459.574C110.415 459.574 110.928 460.087 110.928 460.717C110.928 461.346 110.415 461.859 109.785 461.859H108.643V459.574H109.785Z" fill="#04BDAF"/>
</g>
<path d="M84.9807 491.926V493.395H82.5627V501H80.7427V493.395H78.3247V491.926H84.9807ZM90.5206 501.091C89.6713 501.091 88.8913 500.892 88.1806 500.493C87.47 500.094 86.9066 499.544 86.4906 498.842C86.0746 498.131 85.8666 497.33 85.8666 496.437C85.8666 495.553 86.0746 494.76 86.4906 494.058C86.9066 493.347 87.47 492.793 88.1806 492.394C88.8913 491.995 89.6713 491.796 90.5206 491.796C91.3786 491.796 92.1586 491.995 92.8606 492.394C93.5713 492.793 94.1303 493.347 94.5376 494.058C94.9536 494.76 95.1616 495.553 95.1616 496.437C95.1616 497.33 94.9536 498.131 94.5376 498.842C94.1303 499.544 93.5713 500.094 92.8606 500.493C92.15 500.892 91.37 501.091 90.5206 501.091ZM90.5206 499.466C91.0666 499.466 91.5476 499.345 91.9636 499.102C92.3796 498.851 92.7046 498.495 92.9386 498.036C93.1726 497.577 93.2896 497.044 93.2896 496.437C93.2896 495.83 93.1726 495.302 92.9386 494.851C92.7046 494.392 92.3796 494.041 91.9636 493.798C91.5476 493.555 91.0666 493.434 90.5206 493.434C89.9746 493.434 89.4893 493.555 89.0646 493.798C88.6486 494.041 88.3236 494.392 88.0896 494.851C87.8556 495.302 87.7386 495.83 87.7386 496.437C87.7386 497.044 87.8556 497.577 88.0896 498.036C88.3236 498.495 88.6486 498.851 89.0646 499.102C89.4893 499.345 89.9746 499.466 90.5206 499.466ZM98.3097 491.926V497.542C98.3097 498.157 98.47 498.63 98.7907 498.959C99.1113 499.28 99.562 499.44 100.143 499.44C100.732 499.44 101.187 499.28 101.508 498.959C101.828 498.63 101.989 498.157 101.989 497.542V491.926H103.822V497.529C103.822 498.3 103.653 498.955 103.315 499.492C102.985 500.021 102.539 500.419 101.976 500.688C101.421 500.957 100.801 501.091 100.117 501.091C99.4407 501.091 98.8253 500.957 98.2707 500.688C97.7247 500.419 97.2913 500.021 96.9707 499.492C96.65 498.955 96.4897 498.3 96.4897 497.529V491.926H98.3097ZM111.755 491.926V493.395H109.337V501H107.517V493.395H105.099V491.926H111.755ZM118.001 499.557H120.991V501H116.181V491.926H118.001V499.557ZM123.967 493.395V495.67H127.022V497.113H123.967V499.518H127.412V501H122.147V491.913H127.412V493.395H123.967ZM132.199 501.091C131.567 501.091 130.995 500.983 130.483 500.766C129.981 500.549 129.582 500.237 129.287 499.83C128.993 499.423 128.841 498.942 128.832 498.387H130.782C130.808 498.76 130.938 499.054 131.172 499.271C131.415 499.488 131.744 499.596 132.16 499.596C132.585 499.596 132.919 499.496 133.161 499.297C133.404 499.089 133.525 498.82 133.525 498.491C133.525 498.222 133.443 498.001 133.278 497.828C133.114 497.655 132.906 497.52 132.654 497.425C132.412 497.321 132.074 497.208 131.64 497.087C131.051 496.914 130.57 496.745 130.197 496.58C129.833 496.407 129.517 496.151 129.248 495.813C128.988 495.466 128.858 495.007 128.858 494.435C128.858 493.898 128.993 493.43 129.261 493.031C129.53 492.632 129.907 492.329 130.392 492.121C130.878 491.904 131.432 491.796 132.056 491.796C132.992 491.796 133.751 492.026 134.331 492.485C134.921 492.936 135.246 493.568 135.306 494.383H133.304C133.287 494.071 133.153 493.815 132.901 493.616C132.659 493.408 132.334 493.304 131.926 493.304C131.571 493.304 131.285 493.395 131.068 493.577C130.86 493.759 130.756 494.023 130.756 494.37C130.756 494.613 130.834 494.816 130.99 494.981C131.155 495.137 131.354 495.267 131.588 495.371C131.831 495.466 132.169 495.579 132.602 495.709C133.192 495.882 133.673 496.056 134.045 496.229C134.418 496.402 134.739 496.662 135.007 497.009C135.276 497.356 135.41 497.811 135.41 498.374C135.41 498.859 135.285 499.31 135.033 499.726C134.782 500.142 134.414 500.476 133.928 500.727C133.443 500.97 132.867 501.091 132.199 501.091ZM72.3656 511.734C72.3656 512.219 72.2486 512.674 72.0146 513.099C71.7892 513.524 71.4296 513.866 70.9356 514.126C70.4502 514.386 69.8349 514.516 69.0896 514.516H67.5686V518H65.7486V508.926H69.0896C69.7916 508.926 70.3896 509.047 70.8836 509.29C71.3776 509.533 71.7459 509.866 71.9886 510.291C72.2399 510.716 72.3656 511.197 72.3656 511.734ZM69.0116 513.047C69.5142 513.047 69.8869 512.934 70.1296 512.709C70.3722 512.475 70.4936 512.15 70.4936 511.734C70.4936 510.85 69.9996 510.408 69.0116 510.408H67.5686V513.047H69.0116ZM81.1847 508.926V518H79.3647V514.139H75.4777V518H73.6577V508.926H75.4777V512.657H79.3647V508.926H81.1847ZM88.5401 516.271H84.9261L84.3281 518H82.4171L85.6801 508.913H87.7991L91.0621 518H89.1381L88.5401 516.271ZM88.0461 514.815L86.7331 511.019L85.4201 514.815H88.0461ZM96.9618 518L94.9598 514.464H94.1018V518H92.2818V508.926H95.6878C96.3898 508.926 96.9878 509.052 97.4818 509.303C97.9758 509.546 98.3441 509.879 98.5868 510.304C98.8381 510.72 98.9638 511.188 98.9638 511.708C98.9638 512.306 98.7904 512.848 98.4438 513.333C98.0971 513.81 97.5814 514.139 96.8968 514.321L99.0678 518H96.9618ZM94.1018 513.099H95.6228C96.1168 513.099 96.4851 512.982 96.7278 512.748C96.9704 512.505 97.0918 512.172 97.0918 511.747C97.0918 511.331 96.9704 511.01 96.7278 510.785C96.4851 510.551 96.1168 510.434 95.6228 510.434H94.1018V513.099ZM110.503 508.926V518H108.683V512.098L106.252 518H104.874L102.43 512.098V518H100.61V508.926H102.677L105.563 515.673L108.449 508.926H110.503ZM117.866 516.271H114.252L113.654 518H111.743L115.006 508.913H117.125L120.388 518H118.464L117.866 516.271ZM117.372 514.815L116.059 511.019L114.746 514.815H117.372ZM121.166 513.45C121.166 512.557 121.365 511.76 121.764 511.058C122.171 510.347 122.722 509.797 123.415 509.407C124.117 509.008 124.901 508.809 125.768 508.809C126.782 508.809 127.67 509.069 128.433 509.589C129.196 510.109 129.729 510.828 130.032 511.747H127.939C127.731 511.314 127.436 510.989 127.055 510.772C126.682 510.555 126.249 510.447 125.755 510.447C125.226 510.447 124.754 510.573 124.338 510.824C123.931 511.067 123.61 511.413 123.376 511.864C123.151 512.315 123.038 512.843 123.038 513.45C123.038 514.048 123.151 514.577 123.376 515.036C123.61 515.487 123.931 515.838 124.338 516.089C124.754 516.332 125.226 516.453 125.755 516.453C126.249 516.453 126.682 516.345 127.055 516.128C127.436 515.903 127.731 515.573 127.939 515.14H130.032C129.729 516.067 129.196 516.791 128.433 517.311C127.679 517.822 126.791 518.078 125.768 518.078C124.901 518.078 124.117 517.883 123.415 517.493C122.722 517.094 122.171 516.544 121.764 515.842C121.365 515.14 121.166 514.343 121.166 513.45ZM133.406 508.926V518H131.586V508.926H133.406ZM137.025 510.395V512.67H140.08V514.113H137.025V516.518H140.47V518H135.205V508.913H140.47V510.395H137.025ZM145.257 518.091C144.624 518.091 144.052 517.983 143.541 517.766C143.038 517.549 142.639 517.237 142.345 516.83C142.05 516.423 141.898 515.942 141.89 515.387H143.84C143.866 515.76 143.996 516.054 144.23 516.271C144.472 516.488 144.802 516.596 145.218 516.596C145.642 516.596 145.976 516.496 146.219 516.297C146.461 516.089 146.583 515.82 146.583 515.491C146.583 515.222 146.5 515.001 146.336 514.828C146.171 514.655 145.963 514.52 145.712 514.425C145.469 514.321 145.131 514.208 144.698 514.087C144.108 513.914 143.627 513.745 143.255 513.58C142.891 513.407 142.574 513.151 142.306 512.813C142.046 512.466 141.916 512.007 141.916 511.435C141.916 510.898 142.05 510.43 142.319 510.031C142.587 509.632 142.964 509.329 143.45 509.121C143.935 508.904 144.49 508.796 145.114 508.796C146.05 508.796 146.808 509.026 147.389 509.485C147.978 509.936 148.303 510.568 148.364 511.383H146.362C146.344 511.071 146.21 510.815 145.959 510.616C145.716 510.408 145.391 510.304 144.984 510.304C144.628 510.304 144.342 510.395 144.126 510.577C143.918 510.759 143.814 511.023 143.814 511.37C143.814 511.613 143.892 511.816 144.048 511.981C144.212 512.137 144.412 512.267 144.646 512.371C144.888 512.466 145.226 512.579 145.66 512.709C146.249 512.882 146.73 513.056 147.103 513.229C147.475 513.402 147.796 513.662 148.065 514.009C148.333 514.356 148.468 514.811 148.468 515.374C148.468 515.859 148.342 516.31 148.091 516.726C147.839 517.142 147.471 517.476 146.986 517.727C146.5 517.97 145.924 518.091 145.257 518.091Z" fill="#4A4763"/>
<g filter="url(#filter1_d_41_3)">
<rect x="198" y="406" width="139" height="139" rx="15" fill="white"/>
<rect x="199" y="407" width="137" height="137" rx="14" stroke="white" stroke-width="2"/>
</g>
<path d="M232.366 494.734C232.366 495.219 232.249 495.674 232.015 496.099C231.789 496.524 231.43 496.866 230.936 497.126C230.45 497.386 229.835 497.516 229.09 497.516H227.569V501H225.749V491.926H229.09C229.792 491.926 230.39 492.047 230.884 492.29C231.378 492.533 231.746 492.866 231.989 493.291C232.24 493.716 232.366 494.197 232.366 494.734ZM229.012 496.047C229.514 496.047 229.887 495.934 230.13 495.709C230.372 495.475 230.494 495.15 230.494 494.734C230.494 493.85 230 493.408 229.012 493.408H227.569V496.047H229.012ZM241.185 491.926V501H239.365V497.139H235.478V501H233.658V491.926H235.478V495.657H239.365V491.926H241.185ZM248.54 499.271H244.926L244.328 501H242.417L245.68 491.913H247.799L251.062 501H249.138L248.54 499.271ZM248.046 497.815L246.733 494.019L245.42 497.815H248.046ZM256.962 501L254.96 497.464H254.102V501H252.282V491.926H255.688C256.39 491.926 256.988 492.052 257.482 492.303C257.976 492.546 258.344 492.879 258.587 493.304C258.838 493.72 258.964 494.188 258.964 494.708C258.964 495.306 258.79 495.848 258.444 496.333C258.097 496.81 257.581 497.139 256.897 497.321L259.068 501H256.962ZM254.102 496.099H255.623C256.117 496.099 256.485 495.982 256.728 495.748C256.97 495.505 257.092 495.172 257.092 494.747C257.092 494.331 256.97 494.01 256.728 493.785C256.485 493.551 256.117 493.434 255.623 493.434H254.102V496.099ZM270.503 491.926V501H268.683V495.098L266.252 501H264.874L262.43 495.098V501H260.61V491.926H262.677L265.563 498.673L268.449 491.926H270.503ZM277.866 499.271H274.252L273.654 501H271.743L275.006 491.913H277.125L280.388 501H278.464L277.866 499.271ZM277.372 497.815L276.059 494.019L274.746 497.815H277.372ZM281.166 496.45C281.166 495.557 281.365 494.76 281.764 494.058C282.171 493.347 282.722 492.797 283.415 492.407C284.117 492.008 284.901 491.809 285.768 491.809C286.782 491.809 287.67 492.069 288.433 492.589C289.196 493.109 289.729 493.828 290.032 494.747H287.939C287.731 494.314 287.436 493.989 287.055 493.772C286.682 493.555 286.249 493.447 285.755 493.447C285.226 493.447 284.754 493.573 284.338 493.824C283.931 494.067 283.61 494.413 283.376 494.864C283.151 495.315 283.038 495.843 283.038 496.45C283.038 497.048 283.151 497.577 283.376 498.036C283.61 498.487 283.931 498.838 284.338 499.089C284.754 499.332 285.226 499.453 285.755 499.453C286.249 499.453 286.682 499.345 287.055 499.128C287.436 498.903 287.731 498.573 287.939 498.14H290.032C289.729 499.067 289.196 499.791 288.433 500.311C287.679 500.822 286.791 501.078 285.768 501.078C284.901 501.078 284.117 500.883 283.415 500.493C282.722 500.094 282.171 499.544 281.764 498.842C281.365 498.14 281.166 497.343 281.166 496.45ZM293.406 491.926V501H291.586V491.926H293.406ZM297.025 493.395V495.67H300.08V497.113H297.025V499.518H300.47V501H295.205V491.913H300.47V493.395H297.025ZM305.257 501.091C304.624 501.091 304.052 500.983 303.541 500.766C303.038 500.549 302.639 500.237 302.345 499.83C302.05 499.423 301.898 498.942 301.89 498.387H303.84C303.866 498.76 303.996 499.054 304.23 499.271C304.472 499.488 304.802 499.596 305.218 499.596C305.642 499.596 305.976 499.496 306.219 499.297C306.461 499.089 306.583 498.82 306.583 498.491C306.583 498.222 306.5 498.001 306.336 497.828C306.171 497.655 305.963 497.52 305.712 497.425C305.469 497.321 305.131 497.208 304.698 497.087C304.108 496.914 303.627 496.745 303.255 496.58C302.891 496.407 302.574 496.151 302.306 495.813C302.046 495.466 301.916 495.007 301.916 494.435C301.916 493.898 302.05 493.43 302.319 493.031C302.587 492.632 302.964 492.329 303.45 492.121C303.935 491.904 304.49 491.796 305.114 491.796C306.05 491.796 306.808 492.026 307.389 492.485C307.978 492.936 308.303 493.568 308.364 494.383H306.362C306.344 494.071 306.21 493.815 305.959 493.616C305.716 493.408 305.391 493.304 304.984 493.304C304.628 493.304 304.342 493.395 304.126 493.577C303.918 493.759 303.814 494.023 303.814 494.37C303.814 494.613 303.892 494.816 304.048 494.981C304.212 495.137 304.412 495.267 304.646 495.371C304.888 495.466 305.226 495.579 305.66 495.709C306.249 495.882 306.73 496.056 307.103 496.229C307.475 496.402 307.796 496.662 308.065 497.009C308.333 497.356 308.468 497.811 308.468 498.374C308.468 498.859 308.342 499.31 308.091 499.726C307.839 500.142 307.471 500.476 306.986 500.727C306.5 500.97 305.924 501.091 305.257 501.091ZM239.477 508.926C240.43 508.926 241.266 509.112 241.986 509.485C242.714 509.858 243.273 510.391 243.663 511.084C244.061 511.769 244.261 512.566 244.261 513.476C244.261 514.386 244.061 515.183 243.663 515.868C243.273 516.544 242.714 517.068 241.986 517.441C241.266 517.814 240.43 518 239.477 518H236.305V508.926H239.477ZM239.412 516.453C240.365 516.453 241.102 516.193 241.622 515.673C242.142 515.153 242.402 514.421 242.402 513.476C242.402 512.531 242.142 511.795 241.622 511.266C241.102 510.729 240.365 510.46 239.412 510.46H238.125V516.453H239.412ZM247.443 510.395V512.67H250.498V514.113H247.443V516.518H250.888V518H245.623V508.913H250.888V510.395H247.443ZM261.958 511.656C261.75 511.275 261.464 510.984 261.1 510.785C260.736 510.586 260.311 510.486 259.826 510.486C259.288 510.486 258.812 510.607 258.396 510.85C257.98 511.093 257.655 511.439 257.421 511.89C257.187 512.341 257.07 512.861 257.07 513.45C257.07 514.057 257.187 514.585 257.421 515.036C257.663 515.487 257.997 515.833 258.422 516.076C258.846 516.319 259.34 516.44 259.904 516.44C260.597 516.44 261.165 516.258 261.607 515.894C262.049 515.521 262.339 515.006 262.478 514.347H259.358V512.956H264.272V514.542C264.15 515.175 263.89 515.76 263.492 516.297C263.093 516.834 262.577 517.268 261.945 517.597C261.321 517.918 260.619 518.078 259.839 518.078C258.963 518.078 258.17 517.883 257.46 517.493C256.758 517.094 256.203 516.544 255.796 515.842C255.397 515.14 255.198 514.343 255.198 513.45C255.198 512.557 255.397 511.76 255.796 511.058C256.203 510.347 256.758 509.797 257.46 509.407C258.17 509.008 258.959 508.809 259.826 508.809C260.848 508.809 261.737 509.06 262.491 509.563C263.245 510.057 263.765 510.755 264.051 511.656H261.958ZM271.182 516.271H267.568L266.97 518H265.059L268.322 508.913H270.441L273.704 518H271.78L271.182 516.271ZM270.688 514.815L269.375 511.019L268.062 514.815H270.688ZM279.604 518L277.602 514.464H276.744V518H274.924V508.926H278.33C279.032 508.926 279.63 509.052 280.124 509.303C280.618 509.546 280.986 509.879 281.229 510.304C281.48 510.72 281.606 511.188 281.606 511.708C281.606 512.306 281.433 512.848 281.086 513.333C280.739 513.81 280.224 514.139 279.539 514.321L281.71 518H279.604ZM276.744 513.099H278.265C278.759 513.099 279.127 512.982 279.37 512.748C279.613 512.505 279.734 512.172 279.734 511.747C279.734 511.331 279.613 511.01 279.37 510.785C279.127 510.551 278.759 510.434 278.265 510.434H276.744V513.099ZM286.424 508.926C287.377 508.926 288.214 509.112 288.933 509.485C289.661 509.858 290.22 510.391 290.61 511.084C291.009 511.769 291.208 512.566 291.208 513.476C291.208 514.386 291.009 515.183 290.61 515.868C290.22 516.544 289.661 517.068 288.933 517.441C288.214 517.814 287.377 518 286.424 518H283.252V508.926H286.424ZM286.359 516.453C287.312 516.453 288.049 516.193 288.569 515.673C289.089 515.153 289.349 514.421 289.349 513.476C289.349 512.531 289.089 511.795 288.569 511.266C288.049 510.729 287.312 510.46 286.359 510.46H285.072V516.453H286.359ZM294.39 510.395V512.67H297.445V514.113H294.39V516.518H297.835V518H292.57V508.913H297.835V510.395H294.39Z" fill="#4A4763"/>
<g filter="url(#filter2_d_41_3)">
<rect x="38" y="566" width="139" height="139" rx="15" fill="white"/>
<rect x="39" y="567" width="137" height="137" rx="14" stroke="white" stroke-width="2"/>
</g>
<path d="M65.696 659.557H68.686V661H63.876V651.926H65.696V659.557ZM75.4068 659.271H71.7928L71.1948 661H69.2838L72.5468 651.913H74.6658L77.9288 661H76.0048L75.4068 659.271ZM74.9128 657.815L73.5998 654.019L72.2868 657.815H74.9128ZM84.2965 656.346C84.8078 656.441 85.2281 656.697 85.5575 657.113C85.8868 657.529 86.0515 658.006 86.0515 658.543C86.0515 659.028 85.9301 659.457 85.6875 659.83C85.4535 660.194 85.1111 660.48 84.6605 660.688C84.2098 660.896 83.6768 661 83.0615 661H79.1485V651.926H82.8925C83.5078 651.926 84.0365 652.026 84.4785 652.225C84.9291 652.424 85.2671 652.702 85.4925 653.057C85.7265 653.412 85.8435 653.815 85.8435 654.266C85.8435 654.795 85.7005 655.237 85.4145 655.592C85.1371 655.947 84.7645 656.199 84.2965 656.346ZM80.9685 655.67H82.6325C83.0658 655.67 83.3995 655.575 83.6335 655.384C83.8675 655.185 83.9845 654.903 83.9845 654.539C83.9845 654.175 83.8675 653.893 83.6335 653.694C83.3995 653.495 83.0658 653.395 82.6325 653.395H80.9685V655.67ZM82.8015 659.518C83.2435 659.518 83.5858 659.414 83.8285 659.206C84.0798 658.998 84.2055 658.703 84.2055 658.322C84.2055 657.932 84.0755 657.629 83.8155 657.412C83.5555 657.187 83.2045 657.074 82.7625 657.074H80.9685V659.518H82.8015ZM91.714 661.091C90.8646 661.091 90.0846 660.892 89.374 660.493C88.6633 660.094 88.1 659.544 87.684 658.842C87.268 658.131 87.06 657.33 87.06 656.437C87.06 655.553 87.268 654.76 87.684 654.058C88.1 653.347 88.6633 652.793 89.374 652.394C90.0846 651.995 90.8646 651.796 91.714 651.796C92.572 651.796 93.352 651.995 94.054 652.394C94.7646 652.793 95.3236 653.347 95.731 654.058C96.147 654.76 96.355 655.553 96.355 656.437C96.355 657.33 96.147 658.131 95.731 658.842C95.3236 659.544 94.7646 660.094 94.054 660.493C93.3433 660.892 92.5633 661.091 91.714 661.091ZM91.714 659.466C92.26 659.466 92.741 659.345 93.157 659.102C93.573 658.851 93.898 658.495 94.132 658.036C94.366 657.577 94.483 657.044 94.483 656.437C94.483 655.83 94.366 655.302 94.132 654.851C93.898 654.392 93.573 654.041 93.157 653.798C92.741 653.555 92.26 653.434 91.714 653.434C91.168 653.434 90.6826 653.555 90.258 653.798C89.842 654.041 89.517 654.392 89.283 654.851C89.049 655.302 88.932 655.83 88.932 656.437C88.932 657.044 89.049 657.577 89.283 658.036C89.517 658.495 89.842 658.851 90.258 659.102C90.6826 659.345 91.168 659.466 91.714 659.466ZM102.389 661L100.387 657.464H99.529V661H97.709V651.926H101.115C101.817 651.926 102.415 652.052 102.909 652.303C103.403 652.546 103.771 652.879 104.014 653.304C104.265 653.72 104.391 654.188 104.391 654.708C104.391 655.306 104.218 655.848 103.871 656.333C103.524 656.81 103.009 657.139 102.324 657.321L104.495 661H102.389ZM99.529 656.099H101.05C101.544 656.099 101.912 655.982 102.155 655.748C102.398 655.505 102.519 655.172 102.519 654.747C102.519 654.331 102.398 654.01 102.155 653.785C101.912 653.551 101.544 653.434 101.05 653.434H99.529V656.099ZM111.601 659.271H107.987L107.389 661H105.478L108.741 651.913H110.86L114.123 661H112.199L111.601 659.271ZM111.107 657.815L109.794 654.019L108.481 657.815H111.107ZM121.518 651.926V653.395H119.1V661H117.28V653.395H114.862V651.926H121.518ZM127.058 661.091C126.208 661.091 125.428 660.892 124.718 660.493C124.007 660.094 123.444 659.544 123.028 658.842C122.612 658.131 122.404 657.33 122.404 656.437C122.404 655.553 122.612 654.76 123.028 654.058C123.444 653.347 124.007 652.793 124.718 652.394C125.428 651.995 126.208 651.796 127.058 651.796C127.916 651.796 128.696 651.995 129.398 652.394C130.108 652.793 130.667 653.347 131.075 654.058C131.491 654.76 131.699 655.553 131.699 656.437C131.699 657.33 131.491 658.131 131.075 658.842C130.667 659.544 130.108 660.094 129.398 660.493C128.687 660.892 127.907 661.091 127.058 661.091ZM127.058 659.466C127.604 659.466 128.085 659.345 128.501 659.102C128.917 658.851 129.242 658.495 129.476 658.036C129.71 657.577 129.827 657.044 129.827 656.437C129.827 655.83 129.71 655.302 129.476 654.851C129.242 654.392 128.917 654.041 128.501 653.798C128.085 653.555 127.604 653.434 127.058 653.434C126.512 653.434 126.026 653.555 125.602 653.798C125.186 654.041 124.861 654.392 124.627 654.851C124.393 655.302 124.276 655.83 124.276 656.437C124.276 657.044 124.393 657.577 124.627 658.036C124.861 658.495 125.186 658.851 125.602 659.102C126.026 659.345 126.512 659.466 127.058 659.466ZM134.873 651.926V661H133.053V651.926H134.873ZM141.351 661L139.349 657.464H138.491V661H136.671V651.926H140.077C140.779 651.926 141.377 652.052 141.871 652.303C142.365 652.546 142.733 652.879 142.976 653.304C143.227 653.72 143.353 654.188 143.353 654.708C143.353 655.306 143.18 655.848 142.833 656.333C142.486 656.81 141.971 657.139 141.286 657.321L143.457 661H141.351ZM138.491 656.099H140.012C140.506 656.099 140.874 655.982 141.117 655.748C141.36 655.505 141.481 655.172 141.481 654.747C141.481 654.331 141.36 654.01 141.117 653.785C140.874 653.551 140.506 653.434 140.012 653.434H138.491V656.099ZM146.819 653.395V655.67H149.874V657.113H146.819V659.518H150.264V661H144.999V651.913H150.264V653.395H146.819ZM89.3906 668.926V678H87.5706V672.098L85.1396 678H83.7616L81.3176 672.098V678H79.4976V668.926H81.5646L84.4506 675.673L87.3366 668.926H89.3906ZM93.01 670.395V672.67H96.065V674.113H93.01V676.518H96.455V678H91.19V668.913H96.455V670.395H93.01ZM101.281 668.926C102.234 668.926 103.071 669.112 103.79 669.485C104.518 669.858 105.077 670.391 105.467 671.084C105.866 671.769 106.065 672.566 106.065 673.476C106.065 674.386 105.866 675.183 105.467 675.868C105.077 676.544 104.518 677.068 103.79 677.441C103.071 677.814 102.234 678 101.281 678H98.1089V668.926H101.281ZM101.216 676.453C102.169 676.453 102.906 676.193 103.426 675.673C103.946 675.153 104.206 674.421 104.206 673.476C104.206 672.531 103.946 671.795 103.426 671.266C102.906 670.729 102.169 670.46 101.216 670.46H99.9289V676.453H101.216ZM109.247 668.926V678H107.427V668.926H109.247ZM110.603 673.45C110.603 672.557 110.803 671.76 111.201 671.058C111.609 670.347 112.159 669.797 112.852 669.407C113.554 669.008 114.339 668.809 115.205 668.809C116.219 668.809 117.108 669.069 117.87 669.589C118.633 670.109 119.166 670.828 119.469 671.747H117.376C117.168 671.314 116.874 670.989 116.492 670.772C116.12 670.555 115.686 670.447 115.192 670.447C114.664 670.447 114.191 670.573 113.775 670.824C113.368 671.067 113.047 671.413 112.813 671.864C112.588 672.315 112.475 672.843 112.475 673.45C112.475 674.048 112.588 674.577 112.813 675.036C113.047 675.487 113.368 675.838 113.775 676.089C114.191 676.332 114.664 676.453 115.192 676.453C115.686 676.453 116.12 676.345 116.492 676.128C116.874 675.903 117.168 675.573 117.376 675.14H119.469C119.166 676.067 118.633 676.791 117.87 677.311C117.116 677.822 116.228 678.078 115.205 678.078C114.339 678.078 113.554 677.883 112.852 677.493C112.159 677.094 111.609 676.544 111.201 675.842C110.803 675.14 110.603 674.343 110.603 673.45ZM126.588 676.271H122.974L122.376 678H120.465L123.728 668.913H125.847L129.11 678H127.186L126.588 676.271ZM126.094 674.815L124.781 671.019L123.468 674.815H126.094ZM132.15 676.557H135.14V678H130.33V668.926H132.15V676.557Z" fill="#4A4763"/>
<g filter="url(#filter3_d_41_3)">
<rect x="198" y="566" width="139" height="139" rx="15" fill="white"/>
<rect x="199" y="567" width="137" height="137" rx="14" stroke="white" stroke-width="2"/>
</g>
<path d="M240.124 659.557H243.114V661H238.304V651.926H240.124V659.557ZM246.091 651.926V661H244.271V651.926H246.091ZM251.022 661.091C250.39 661.091 249.818 660.983 249.306 660.766C248.804 660.549 248.405 660.237 248.11 659.83C247.816 659.423 247.664 658.942 247.655 658.387H249.605C249.631 658.76 249.761 659.054 249.995 659.271C250.238 659.488 250.567 659.596 250.983 659.596C251.408 659.596 251.742 659.496 251.984 659.297C252.227 659.089 252.348 658.82 252.348 658.491C252.348 658.222 252.266 658.001 252.101 657.828C251.937 657.655 251.729 657.52 251.477 657.425C251.235 657.321 250.897 657.208 250.463 657.087C249.874 656.914 249.393 656.745 249.02 656.58C248.656 656.407 248.34 656.151 248.071 655.813C247.811 655.466 247.681 655.007 247.681 654.435C247.681 653.898 247.816 653.43 248.084 653.031C248.353 652.632 248.73 652.329 249.215 652.121C249.701 651.904 250.255 651.796 250.879 651.796C251.815 651.796 252.574 652.026 253.154 652.485C253.744 652.936 254.069 653.568 254.129 654.383H252.127C252.11 654.071 251.976 653.815 251.724 653.616C251.482 653.408 251.157 653.304 250.749 653.304C250.394 653.304 250.108 653.395 249.891 653.577C249.683 653.759 249.579 654.023 249.579 654.37C249.579 654.613 249.657 654.816 249.813 654.981C249.978 655.137 250.177 655.267 250.411 655.371C250.654 655.466 250.992 655.579 251.425 655.709C252.015 655.882 252.496 656.056 252.868 656.229C253.241 656.402 253.562 656.662 253.83 657.009C254.099 657.356 254.233 657.811 254.233 658.374C254.233 658.859 254.108 659.31 253.856 659.726C253.605 660.142 253.237 660.476 252.751 660.727C252.266 660.97 251.69 661.091 251.022 661.091ZM261.986 651.926V653.395H259.568V661H257.748V653.395H255.33V651.926H261.986ZM265.134 653.395V655.67H268.189V657.113H265.134V659.518H268.579V661H263.314V651.913H268.579V653.395H265.134ZM276.503 651.926C277.456 651.926 278.292 652.112 279.012 652.485C279.74 652.858 280.299 653.391 280.689 654.084C281.087 654.769 281.287 655.566 281.287 656.476C281.287 657.386 281.087 658.183 280.689 658.868C280.299 659.544 279.74 660.068 279.012 660.441C278.292 660.814 277.456 661 276.503 661H273.331V651.926H276.503ZM276.438 659.453C277.391 659.453 278.128 659.193 278.648 658.673C279.168 658.153 279.428 657.421 279.428 656.476C279.428 655.531 279.168 654.795 278.648 654.266C278.128 653.729 277.391 653.46 276.438 653.46H275.151V659.453H276.438ZM284.469 653.395V655.67H287.524V657.113H284.469V659.518H287.914V661H282.649V651.913H287.914V653.395H284.469ZM292.701 661.091C292.068 661.091 291.496 660.983 290.985 660.766C290.482 660.549 290.084 660.237 289.789 659.83C289.494 659.423 289.343 658.942 289.334 658.387H291.284C291.31 658.76 291.44 659.054 291.674 659.271C291.917 659.488 292.246 659.596 292.662 659.596C293.087 659.596 293.42 659.496 293.663 659.297C293.906 659.089 294.027 658.82 294.027 658.491C294.027 658.222 293.945 658.001 293.78 657.828C293.615 657.655 293.407 657.52 293.156 657.425C292.913 657.321 292.575 657.208 292.142 657.087C291.553 656.914 291.072 656.745 290.699 656.58C290.335 656.407 290.019 656.151 289.75 655.813C289.49 655.466 289.36 655.007 289.36 654.435C289.36 653.898 289.494 653.43 289.763 653.031C290.032 652.632 290.409 652.329 290.894 652.121C291.379 651.904 291.934 651.796 292.558 651.796C293.494 651.796 294.252 652.026 294.833 652.485C295.422 652.936 295.747 653.568 295.808 654.383H293.806C293.789 654.071 293.654 653.815 293.403 653.616C293.16 653.408 292.835 653.304 292.428 653.304C292.073 653.304 291.787 653.395 291.57 653.577C291.362 653.759 291.258 654.023 291.258 654.37C291.258 654.613 291.336 654.816 291.492 654.981C291.657 655.137 291.856 655.267 292.09 655.371C292.333 655.466 292.671 655.579 293.104 655.709C293.693 655.882 294.174 656.056 294.547 656.229C294.92 656.402 295.24 656.662 295.509 657.009C295.778 657.356 295.912 657.811 295.912 658.374C295.912 658.859 295.786 659.31 295.535 659.726C295.284 660.142 294.915 660.476 294.43 660.727C293.945 660.97 293.368 661.091 292.701 661.091ZM230.576 668.926V678H228.756V672.098L226.325 678H224.947L222.503 672.098V678H220.683V668.926H222.75L225.636 675.673L228.522 668.926H230.576ZM234.196 670.395V672.67H237.251V674.113H234.196V676.518H237.641V678H232.376V668.913H237.641V670.395H234.196ZM242.466 668.926C243.42 668.926 244.256 669.112 244.975 669.485C245.703 669.858 246.262 670.391 246.652 671.084C247.051 671.769 247.25 672.566 247.25 673.476C247.25 674.386 247.051 675.183 246.652 675.868C246.262 676.544 245.703 677.068 244.975 677.441C244.256 677.814 243.42 678 242.466 678H239.294V668.926H242.466ZM242.401 676.453C243.355 676.453 244.091 676.193 244.611 675.673C245.131 675.153 245.391 674.421 245.391 673.476C245.391 672.531 245.131 671.795 244.611 671.266C244.091 670.729 243.355 670.46 242.401 670.46H241.114V676.453H242.401ZM250.433 668.926V678H248.613V668.926H250.433ZM251.789 673.45C251.789 672.557 251.988 671.76 252.387 671.058C252.794 670.347 253.345 669.797 254.038 669.407C254.74 669.008 255.524 668.809 256.391 668.809C257.405 668.809 258.293 669.069 259.056 669.589C259.819 670.109 260.352 670.828 260.655 671.747H258.562C258.354 671.314 258.059 670.989 257.678 670.772C257.305 670.555 256.872 670.447 256.378 670.447C255.849 670.447 255.377 670.573 254.961 670.824C254.554 671.067 254.233 671.413 253.999 671.864C253.774 672.315 253.661 672.843 253.661 673.45C253.661 674.048 253.774 674.577 253.999 675.036C254.233 675.487 254.554 675.838 254.961 676.089C255.377 676.332 255.849 676.453 256.378 676.453C256.872 676.453 257.305 676.345 257.678 676.128C258.059 675.903 258.354 675.573 258.562 675.14H260.655C260.352 676.067 259.819 676.791 259.056 677.311C258.302 677.822 257.414 678.078 256.391 678.078C255.524 678.078 254.74 677.883 254.038 677.493C253.345 677.094 252.794 676.544 252.387 675.842C251.988 675.14 251.789 674.343 251.789 673.45ZM267.774 676.271H264.16L263.562 678H261.651L264.914 668.913H267.033L270.296 678H268.372L267.774 676.271ZM267.28 674.815L265.967 671.019L264.653 674.815H267.28ZM281.408 668.926V678H279.588V672.098L277.157 678H275.779L273.335 672.098V678H271.515V668.926H273.582L276.468 675.673L279.354 668.926H281.408ZM285.028 670.395V672.67H288.083V674.113H285.028V676.518H288.473V678H283.208V668.913H288.473V670.395H285.028ZM297.887 678H296.067L291.946 671.773V678H290.126V668.913H291.946L296.067 675.153V668.913H297.887V678ZM305.861 668.926V670.395H303.443V678H301.623V670.395H299.205V668.926H305.861ZM310.322 678.091C309.689 678.091 309.117 677.983 308.606 677.766C308.103 677.549 307.705 677.237 307.41 676.83C307.115 676.423 306.964 675.942 306.955 675.387H308.905C308.931 675.76 309.061 676.054 309.295 676.271C309.538 676.488 309.867 676.596 310.283 676.596C310.708 676.596 311.041 676.496 311.284 676.297C311.527 676.089 311.648 675.82 311.648 675.491C311.648 675.222 311.566 675.001 311.401 674.828C311.236 674.655 311.028 674.52 310.777 674.425C310.534 674.321 310.196 674.208 309.763 674.087C309.174 673.914 308.693 673.745 308.32 673.58C307.956 673.407 307.64 673.151 307.371 672.813C307.111 672.466 306.981 672.007 306.981 671.435C306.981 670.898 307.115 670.43 307.384 670.031C307.653 669.632 308.03 669.329 308.515 669.121C309 668.904 309.555 668.796 310.179 668.796C311.115 668.796 311.873 669.026 312.454 669.485C313.043 669.936 313.368 670.568 313.429 671.383H311.427C311.41 671.071 311.275 670.815 311.024 670.616C310.781 670.408 310.456 670.304 310.049 670.304C309.694 670.304 309.408 670.395 309.191 670.577C308.983 670.759 308.879 671.023 308.879 671.37C308.879 671.613 308.957 671.816 309.113 671.981C309.278 672.137 309.477 672.267 309.711 672.371C309.954 672.466 310.292 672.579 310.725 672.709C311.314 672.882 311.795 673.056 312.168 673.229C312.541 673.402 312.861 673.662 313.13 674.009C313.399 674.356 313.533 674.811 313.533 675.374C313.533 675.859 313.407 676.31 313.156 676.726C312.905 677.142 312.536 677.476 312.051 677.727C311.566 677.97 310.989 678.091 310.322 678.091Z" fill="#4A4763"/>
<g clip-path="url(#clip2_41_3)">
<path d="M113.186 598.779C113.186 598.298 112.796 597.909 112.316 597.909C111.835 597.909 111.445 598.298 111.445 598.779V611.948C111.445 612.429 111.835 612.819 112.316 612.819C112.796 612.819 113.186 612.429 113.186 611.948V598.779ZM101.814 611.437C101.814 611.917 102.204 612.307 102.684 612.307C103.165 612.307 103.555 611.917 103.555 611.437V598.779C103.555 598.298 103.165 597.909 102.684 597.909C102.204 597.909 101.814 598.298 101.814 598.779V611.437Z" fill="#04BDAF"/>
<path d="M114.141 594H100.859C100.216 594 99.6957 594.521 99.6957 595.163V597.616C99.6957 598.258 100.216 598.779 100.859 598.779H114.141C114.783 598.779 115.304 598.258 115.304 597.616V595.163C115.304 594.521 114.783 594 114.141 594Z" fill="#04BDAF"/>
<path d="M102.51 608.28H105.683V609.667H102.51V608.28Z" fill="#04BDAF"/>
<path d="M102.51 605.645H104.509V607.032H102.51V605.645Z" fill="#04BDAF"/>
<path d="M102.51 603.011H105.683V604.398H102.51V603.011Z" fill="#04BDAF"/>
<path fill-rule="evenodd" clip-rule="evenodd" d="M116.525 602.602L119.388 598.287C122.866 593.046 127.954 598.134 122.713 601.612L118.398 604.475L116.525 602.602Z" fill="#04BDAF"/>
<path fill-rule="evenodd" clip-rule="evenodd" d="M96.6016 622.525L92.2872 625.388C87.0459 628.866 92.1343 633.954 95.6119 628.713L98.4746 624.398L96.6016 622.525Z" fill="#04BDAF"/>
<path fill-rule="evenodd" clip-rule="evenodd" d="M113.186 627.314V611.948C111.923 611.948 110.659 611.437 109.395 611.437C108.132 611.437 106.868 611.948 105.605 611.948C104.341 611.948 103.077 611.437 101.814 611.437V617.512V620.86V627.314C101.814 630.441 104.373 633 107.5 633C110.627 633 113.186 630.441 113.186 627.314Z" fill="#04BDAF"/>
<path fill-rule="evenodd" clip-rule="evenodd" d="M98.8674 623.806L101.117 621.556V618.209L97.1936 622.133L98.8674 623.806Z" fill="#04BDAF"/>
<path fill-rule="evenodd" clip-rule="evenodd" d="M113.883 608.791L117.806 604.867L116.132 603.194L113.883 605.444V608.791Z" fill="#04BDAF"/>
</g>
<g clip-path="url(#clip3_41_3)">
<path d="M280.59 598.39C277.402 595.203 272.216 595.203 269.028 598.39L262.288 605.13L269.941 612.783C271.516 611.471 273.513 610.65 275.718 610.65C276.982 610.65 278.186 610.913 279.281 611.382L280.59 609.951C283.777 606.764 283.777 601.578 280.59 598.39Z" fill="#04BDAF"/>
<path d="M268.667 614.078L261.003 606.415L254.406 613.018C251.219 616.205 251.219 621.392 254.406 624.58C257.594 627.766 262.84 627.827 266.029 624.64L267.366 623.297C266.897 622.201 266.634 620.998 266.634 619.733C266.634 617.585 267.415 615.635 268.667 614.078Z" fill="#04BDAF"/>
<path d="M268.451 619.733C268.451 623.435 271.229 626.457 274.809 626.908V612.558C271.229 613.01 268.451 616.031 268.451 619.733Z" fill="#04BDAF"/>
<path d="M276.626 612.558V626.908C280.205 626.457 282.984 623.435 282.984 619.733C282.984 616.031 280.205 613.01 276.626 612.558Z" fill="#04BDAF"/>
</g>
<path d="M272.355 471C272.987 471 273.498 470.489 273.498 469.857C273.498 469.226 272.987 468.715 272.355 468.715H258.645C258.013 468.715 257.502 469.226 257.502 469.857C257.502 470.489 258.013 471 258.645 471H272.355Z" fill="#04BDAF"/>
<path d="M265.5 441.217C262.35 441.217 259.787 443.78 259.787 446.93C259.787 450.08 262.35 452.643 265.5 452.643C268.65 452.643 271.213 450.08 271.213 446.93C271.213 443.78 268.65 441.217 265.5 441.217ZM267.785 448.072H266.643V449.215C266.643 449.846 266.132 450.357 265.5 450.357C264.868 450.357 264.357 449.846 264.357 449.215V448.072H263.215C262.583 448.072 262.072 447.561 262.072 446.93C262.072 446.298 262.583 445.787 263.215 445.787H264.357V444.645C264.357 444.013 264.868 443.502 265.5 443.502C266.132 443.502 266.643 444.013 266.643 444.645V445.787H267.785C268.417 445.787 268.928 446.298 268.928 446.93C268.928 447.561 268.417 448.072 267.785 448.072Z" fill="#04BDAF"/>
<path d="M265.496 432C258.297 432 250.646 436.855 250.646 445.787C250.646 452.686 254.177 456.09 260.027 461.602C261.44 462.933 262.998 464.402 264.692 466.095C264.915 466.318 265.208 466.43 265.5 466.43C265.792 466.43 266.085 466.318 266.308 466.095C268.001 464.402 269.56 462.933 270.973 461.602C276.823 456.09 280.354 452.686 280.354 445.787C280.354 436.855 272.698 432 265.496 432ZM265.5 454.928C261.09 454.928 257.502 451.339 257.502 446.93C257.502 442.52 261.09 438.932 265.5 438.932C269.91 438.932 273.498 442.52 273.498 446.93C273.498 451.339 269.91 454.928 265.5 454.928Z" fill="#04BDAF"/>
<path d="M30.1314 39.8814L36.2564 33.7564C36.4214 33.597 36.6424 33.5088 36.8719 33.5108C37.1013 33.5128 37.3207 33.6048 37.483 33.767C37.6452 33.9293 37.7372 34.1487 37.7392 34.3781C37.7412 34.6076 37.653 34.8286 37.4936 34.9936L32.8622 39.625H48.25C48.4821 39.625 48.7046 39.7172 48.8687 39.8813C49.0328 40.0454 49.125 40.2679 49.125 40.5C49.125 40.7321 49.0328 40.9546 48.8687 41.1187C48.7046 41.2828 48.4821 41.375 48.25 41.375H32.8622L37.4936 46.0064C37.5772 46.0871 37.6439 46.1836 37.6897 46.2904C37.7356 46.3971 37.7597 46.512 37.7607 46.6281C37.7617 46.7443 37.7396 46.8595 37.6956 46.9671C37.6516 47.0746 37.5866 47.1723 37.5045 47.2545C37.4223 47.3366 37.3246 47.4016 37.2171 47.4456C37.1096 47.4896 36.9943 47.5117 36.8781 47.5107C36.762 47.5097 36.6472 47.4856 36.5404 47.4397C36.4336 47.3938 36.3371 47.3272 36.2564 47.2436L30.1314 41.1186C29.9673 40.9545 29.8752 40.732 29.8752 40.5C29.8752 40.268 29.9673 40.0455 30.1314 39.8814Z" fill="white"/>
<path d="M328.25 34.2C328.25 33.6201 328.72 33.15 329.3 33.15H342.95C343.53 33.15 344 33.6201 344 34.2C344 34.7799 343.53 35.25 342.95 35.25H329.3C328.72 35.25 328.25 34.7798 328.25 34.2ZM342.95 39.45H324.05C323.47 39.45 323 39.9202 323 40.5C323 41.0799 323.47 41.55 324.05 41.55H342.95C343.53 41.55 344 41.0799 344 40.5C344 39.9202 343.53 39.45 342.95 39.45ZM342.95 45.75H333.5C332.92 45.75 332.45 46.2201 332.45 46.8C332.45 47.3798 332.92 47.85 333.5 47.85H342.95C343.53 47.85 344 47.3798 344 46.8C344 46.2201 343.53 45.75 342.95 45.75Z" fill="white"/>
<path d="M94.2586 200.185V201.766H91.1136V212H89.1756V201.766H86.0136V200.185H94.2586ZM102.358 212L99.6383 207.274H98.1593V212H96.2213V200.185H100.301C101.208 200.185 101.973 200.344 102.596 200.661C103.231 200.978 103.701 201.403 104.007 201.936C104.325 202.469 104.483 203.064 104.483 203.721C104.483 204.492 104.257 205.194 103.803 205.829C103.361 206.452 102.676 206.877 101.746 207.104L104.67 212H102.358ZM98.1593 205.727H100.301C101.027 205.727 101.571 205.546 101.933 205.183C102.307 204.82 102.494 204.333 102.494 203.721C102.494 203.109 102.313 202.633 101.95 202.293C101.588 201.942 101.038 201.766 100.301 201.766H98.1593V205.727ZM112.352 212.119C111.252 212.119 110.238 211.864 109.309 211.354C108.391 210.833 107.66 210.113 107.116 209.195C106.583 208.266 106.317 207.223 106.317 206.067C106.317 204.911 106.583 203.874 107.116 202.956C107.66 202.038 108.391 201.324 109.309 200.814C110.238 200.293 111.252 200.032 112.352 200.032C113.462 200.032 114.477 200.293 115.395 200.814C116.324 201.324 117.055 202.038 117.588 202.956C118.12 203.874 118.387 204.911 118.387 206.067C118.387 207.223 118.12 208.266 117.588 209.195C117.055 210.113 116.324 210.833 115.395 211.354C114.477 211.864 113.462 212.119 112.352 212.119ZM112.352 210.436C113.134 210.436 113.831 210.26 114.443 209.909C115.055 209.546 115.531 209.036 115.871 208.379C116.222 207.71 116.398 206.94 116.398 206.067C116.398 205.194 116.222 204.429 115.871 203.772C115.531 203.115 115.055 202.61 114.443 202.259C113.831 201.908 113.134 201.732 112.352 201.732C111.57 201.732 110.873 201.908 110.261 202.259C109.649 202.61 109.167 203.115 108.816 203.772C108.476 204.429 108.306 205.194 108.306 206.067C108.306 206.94 108.476 207.71 108.816 208.379C109.167 209.036 109.649 209.546 110.261 209.909C110.873 210.26 111.57 210.436 112.352 210.436ZM122.215 200.185V207.716C122.215 208.611 122.447 209.286 122.912 209.739C123.388 210.192 124.045 210.419 124.884 210.419C125.734 210.419 126.391 210.192 126.856 209.739C127.332 209.286 127.57 208.611 127.57 207.716V200.185H129.508V207.682C129.508 208.645 129.298 209.461 128.879 210.13C128.459 210.799 127.898 211.297 127.196 211.626C126.493 211.955 125.717 212.119 124.867 212.119C124.017 212.119 123.24 211.955 122.538 211.626C121.846 211.297 121.297 210.799 120.889 210.13C120.481 209.461 120.277 208.645 120.277 207.682V200.185H122.215ZM142.214 200.185L137.777 212H135.533L131.079 200.185H133.153L136.655 210.011L140.174 200.185H142.214ZM145.773 201.749V205.217H149.853V206.798H145.773V210.419H150.363V212H143.835V200.168H150.363V201.749H145.773ZM154.62 210.317H160.111V212H152.325V210.487L157.799 201.868H152.325V200.185H160.111V201.698L154.62 210.317ZM173.598 200.185V201.766H168.583V205.251H172.493V206.832H168.583V212H166.645V200.185H173.598ZM182.517 209.586H177.57L176.72 212H174.697L178.93 200.168H181.174L185.407 212H183.367L182.517 209.586ZM181.973 208.005L180.052 202.514L178.114 208.005H181.973ZM186.602 206.067C186.602 204.911 186.868 203.874 187.401 202.956C187.945 202.038 188.676 201.324 189.594 200.814C190.523 200.293 191.537 200.032 192.637 200.032C193.895 200.032 195.011 200.344 195.986 200.967C196.972 201.579 197.686 202.452 198.128 203.585H195.799C195.493 202.962 195.068 202.497 194.524 202.191C193.98 201.885 193.351 201.732 192.637 201.732C191.855 201.732 191.158 201.908 190.546 202.259C189.934 202.61 189.452 203.115 189.101 203.772C188.761 204.429 188.591 205.194 188.591 206.067C188.591 206.94 188.761 207.705 189.101 208.362C189.452 209.019 189.934 209.529 190.546 209.892C191.158 210.243 191.855 210.419 192.637 210.419C193.351 210.419 193.98 210.266 194.524 209.96C195.068 209.654 195.493 209.189 195.799 208.566H198.128C197.686 209.699 196.972 210.572 195.986 211.184C195.011 211.796 193.895 212.102 192.637 212.102C191.526 212.102 190.512 211.847 189.594 211.337C188.676 210.816 187.945 210.096 187.401 209.178C186.868 208.26 186.602 207.223 186.602 206.067ZM202.334 200.185V212H200.396V200.185H202.334ZM206.817 210.436H210.812V212H204.879V200.185H206.817V210.436ZM214.37 201.749V205.217H218.45V206.798H214.37V210.419H218.96V212H212.432V200.168H218.96V201.749H214.37ZM233.791 200.185V212H231.853V203.908L228.249 212H226.906L223.285 203.908V212H221.347V200.185H223.438L227.586 209.45L231.717 200.185H233.791ZM238.276 201.749V205.217H242.356V206.798H238.276V210.419H242.866V212H236.338V200.168H242.866V201.749H238.276ZM254.961 212H253.023L247.192 203.177V212H245.254V200.168H247.192L253.023 208.974V200.168H254.961V212ZM265.138 200.185V201.766H261.993V212H260.055V201.766H256.893V200.185H265.138ZM273.455 210.436H277.45V212H271.517V200.185H273.455V210.436ZM286.194 209.586H281.247L280.397 212H278.374L282.607 200.168H284.851L289.084 212H287.044L286.194 209.586ZM285.65 208.005L283.729 202.514L281.791 208.005H285.65ZM65.0297 230.704C65.0297 231.305 64.888 231.871 64.6047 232.404C64.3213 232.937 63.868 233.373 63.2447 233.713C62.6213 234.042 61.8223 234.206 60.8477 234.206H58.7057V239H56.7677V227.185H60.8477C61.7543 227.185 62.5193 227.344 63.1427 227.661C63.7773 227.967 64.2477 228.386 64.5537 228.919C64.871 229.452 65.0297 230.047 65.0297 230.704ZM60.8477 232.625C61.5843 232.625 62.134 232.461 62.4967 232.132C62.8593 231.792 63.0407 231.316 63.0407 230.704C63.0407 229.412 62.3097 228.766 60.8477 228.766H58.7057V232.625H60.8477ZM76.313 227.185V239H74.375V233.832H68.816V239H66.878V227.185H68.816V232.251H74.375V227.185H76.313ZM85.9874 236.586H81.0404L80.1904 239H78.1674L82.4004 227.168H84.6444L88.8774 239H86.8374L85.9874 236.586ZM85.4434 235.005L83.5224 229.514L81.5844 235.005H85.4434ZM96.8549 239L94.1349 234.274H92.6559V239H90.7179V227.185H94.7979C95.7045 227.185 96.4695 227.344 97.0929 227.661C97.7275 227.978 98.1979 228.403 98.5039 228.936C98.8212 229.469 98.9799 230.064 98.9799 230.721C98.9799 231.492 98.7532 232.194 98.2999 232.829C97.8579 233.452 97.1722 233.877 96.2429 234.104L99.1669 239H96.8549ZM92.6559 232.727H94.7979C95.5232 232.727 96.0672 232.546 96.4299 232.183C96.8039 231.82 96.9909 231.333 96.9909 230.721C96.9909 230.109 96.8095 229.633 96.4469 229.293C96.0842 228.942 95.5345 228.766 94.7979 228.766H92.6559V232.727ZM113.903 227.185V239H111.965V230.908L108.361 239H107.018L103.397 230.908V239H101.459V227.185H103.55L107.698 236.45L111.829 227.185H113.903ZM123.573 236.586H118.626L117.776 239H115.753L119.986 227.168H122.23L126.463 239H124.423L123.573 236.586ZM123.029 235.005L121.108 229.514L119.17 235.005H123.029ZM127.658 233.067C127.658 231.911 127.924 230.874 128.457 229.956C129.001 229.038 129.732 228.324 130.65 227.814C131.579 227.293 132.593 227.032 133.693 227.032C134.951 227.032 136.067 227.344 137.042 227.967C138.028 228.579 138.742 229.452 139.184 230.585H136.855C136.549 229.962 136.124 229.497 135.58 229.191C135.036 228.885 134.407 228.732 133.693 228.732C132.911 228.732 132.214 228.908 131.602 229.259C130.99 229.61 130.508 230.115 130.157 230.772C129.817 231.429 129.647 232.194 129.647 233.067C129.647 233.94 129.817 234.705 130.157 235.362C130.508 236.019 130.99 236.529 131.602 236.892C132.214 237.243 132.911 237.419 133.693 237.419C134.407 237.419 135.036 237.266 135.58 236.96C136.124 236.654 136.549 236.189 136.855 235.566H139.184C138.742 236.699 138.028 237.572 137.042 238.184C136.067 238.796 134.951 239.102 133.693 239.102C132.582 239.102 131.568 238.847 130.65 238.337C129.732 237.816 129.001 237.096 128.457 236.178C127.924 235.26 127.658 234.223 127.658 233.067ZM143.39 227.185V239H141.452V227.185H143.39ZM147.873 228.749V232.217H151.953V233.798H147.873V237.419H152.463V239H145.935V227.168H152.463V228.749H147.873ZM161.204 237.436H165.199V239H159.266V227.185H161.204V237.436ZM173.942 236.586H168.995L168.145 239H166.122L170.355 227.168H172.599L176.832 239H174.792L173.942 236.586ZM173.398 235.005L171.477 229.514L169.539 235.005H173.398ZM191.351 230.704C191.351 231.305 191.209 231.871 190.926 232.404C190.643 232.937 190.189 233.373 189.566 233.713C188.943 234.042 188.144 234.206 187.169 234.206H185.027V239H183.089V227.185H187.169C188.076 227.185 188.841 227.344 189.464 227.661C190.099 227.967 190.569 228.386 190.875 228.919C191.192 229.452 191.351 230.047 191.351 230.704ZM187.169 232.625C187.906 232.625 188.455 232.461 188.818 232.132C189.181 231.792 189.362 231.316 189.362 230.704C189.362 229.412 188.631 228.766 187.169 228.766H185.027V232.625H187.169ZM195.137 237.436H199.132V239H193.199V227.185H195.137V237.436ZM202.674 227.185V234.716C202.674 235.611 202.906 236.286 203.371 236.739C203.847 237.192 204.504 237.419 205.343 237.419C206.193 237.419 206.85 237.192 207.315 236.739C207.791 236.286 208.029 235.611 208.029 234.716V227.185H209.967V234.682C209.967 235.645 209.757 236.461 209.338 237.13C208.919 237.799 208.358 238.297 207.655 238.626C206.952 238.955 206.176 239.119 205.326 239.119C204.476 239.119 203.7 238.955 202.997 238.626C202.306 238.297 201.756 237.799 201.348 237.13C200.94 236.461 200.736 235.645 200.736 234.682V227.185H202.674ZM216.383 239.119C215.59 239.119 214.876 238.983 214.241 238.711C213.607 238.428 213.108 238.031 212.745 237.521C212.383 237.011 212.201 236.416 212.201 235.736H214.275C214.321 236.246 214.519 236.665 214.87 236.994C215.233 237.323 215.737 237.487 216.383 237.487C217.052 237.487 217.573 237.328 217.947 237.011C218.321 236.682 218.508 236.263 218.508 235.753C218.508 235.356 218.389 235.033 218.151 234.784C217.925 234.535 217.636 234.342 217.284 234.206C216.944 234.07 216.468 233.923 215.856 233.764C215.086 233.56 214.457 233.356 213.969 233.152C213.493 232.937 213.085 232.608 212.745 232.166C212.405 231.724 212.235 231.135 212.235 230.398C212.235 229.718 212.405 229.123 212.745 228.613C213.085 228.103 213.561 227.712 214.173 227.44C214.785 227.168 215.494 227.032 216.298 227.032C217.443 227.032 218.378 227.321 219.103 227.899C219.84 228.466 220.248 229.248 220.327 230.245H218.185C218.151 229.814 217.947 229.446 217.573 229.14C217.199 228.834 216.706 228.681 216.094 228.681C215.539 228.681 215.086 228.823 214.734 229.106C214.383 229.389 214.207 229.797 214.207 230.33C214.207 230.693 214.315 230.993 214.53 231.231C214.757 231.458 215.04 231.639 215.38 231.775C215.72 231.911 216.185 232.058 216.774 232.217C217.556 232.432 218.191 232.648 218.678 232.863C219.177 233.078 219.596 233.413 219.936 233.866C220.288 234.308 220.463 234.903 220.463 235.651C220.463 236.252 220.299 236.818 219.97 237.351C219.653 237.884 219.183 238.314 218.559 238.643C217.947 238.96 217.222 239.119 216.383 239.119ZM235.428 230.704C235.428 231.305 235.286 231.871 235.003 232.404C234.72 232.937 234.266 233.373 233.643 233.713C233.02 234.042 232.221 234.206 231.246 234.206H229.104V239H227.166V227.185H231.246C232.153 227.185 232.918 227.344 233.541 227.661C234.176 227.967 234.646 228.386 234.952 228.919C235.269 229.452 235.428 230.047 235.428 230.704ZM231.246 232.625C231.983 232.625 232.532 232.461 232.895 232.132C233.258 231.792 233.439 231.316 233.439 230.704C233.439 229.412 232.708 228.766 231.246 228.766H229.104V232.625H231.246ZM243.413 239L240.693 234.274H239.214V239H237.276V227.185H241.356C242.263 227.185 243.028 227.344 243.651 227.661C244.286 227.978 244.756 228.403 245.062 228.936C245.38 229.469 245.538 230.064 245.538 230.721C245.538 231.492 245.312 232.194 244.858 232.829C244.416 233.452 243.731 233.877 242.801 234.104L245.725 239H243.413ZM239.214 232.727H241.356C242.082 232.727 242.626 232.546 242.988 232.183C243.362 231.82 243.549 231.333 243.549 230.721C243.549 230.109 243.368 229.633 243.005 229.293C242.643 228.942 242.093 228.766 241.356 228.766H239.214V232.727ZM253.407 239.119C252.307 239.119 251.293 238.864 250.364 238.354C249.446 237.833 248.715 237.113 248.171 236.195C247.638 235.266 247.372 234.223 247.372 233.067C247.372 231.911 247.638 230.874 248.171 229.956C248.715 229.038 249.446 228.324 250.364 227.814C251.293 227.293 252.307 227.032 253.407 227.032C254.517 227.032 255.532 227.293 256.45 227.814C257.379 228.324 258.11 229.038 258.643 229.956C259.175 230.874 259.442 231.911 259.442 233.067C259.442 234.223 259.175 235.266 258.643 236.195C258.11 237.113 257.379 237.833 256.45 238.354C255.532 238.864 254.517 239.119 253.407 239.119ZM253.407 237.436C254.189 237.436 254.886 237.26 255.498 236.909C256.11 236.546 256.586 236.036 256.926 235.379C257.277 234.71 257.453 233.94 257.453 233.067C257.453 232.194 257.277 231.429 256.926 230.772C256.586 230.115 256.11 229.61 255.498 229.259C254.886 228.908 254.189 228.732 253.407 228.732C252.625 228.732 251.928 228.908 251.316 229.259C250.704 229.61 250.222 230.115 249.871 230.772C249.531 231.429 249.361 232.194 249.361 233.067C249.361 233.94 249.531 234.71 249.871 235.379C250.222 236.036 250.704 236.546 251.316 236.909C251.928 237.26 252.625 237.436 253.407 237.436ZM260.703 233.067C260.703 231.911 260.969 230.874 261.502 229.956C262.046 229.038 262.777 228.324 263.695 227.814C264.624 227.293 265.638 227.032 266.738 227.032C267.996 227.032 269.112 227.344 270.087 227.967C271.073 228.579 271.787 229.452 272.229 230.585H269.9C269.594 229.962 269.169 229.497 268.625 229.191C268.081 228.885 267.452 228.732 266.738 228.732C265.956 228.732 265.259 228.908 264.647 229.259C264.035 229.61 263.553 230.115 263.202 230.772C262.862 231.429 262.692 232.194 262.692 233.067C262.692 233.94 262.862 234.705 263.202 235.362C263.553 236.019 264.035 236.529 264.647 236.892C265.259 237.243 265.956 237.419 266.738 237.419C267.452 237.419 268.081 237.266 268.625 236.96C269.169 236.654 269.594 236.189 269.9 235.566H272.229C271.787 236.699 271.073 237.572 270.087 238.184C269.112 238.796 267.996 239.102 266.738 239.102C265.627 239.102 264.613 238.847 263.695 238.337C262.777 237.816 262.046 237.096 261.502 236.178C260.969 235.26 260.703 234.223 260.703 233.067ZM283.932 227.185V239H281.994V233.832H276.435V239H274.497V227.185H276.435V232.251H281.994V227.185H283.932ZM288.421 228.749V232.217H292.501V233.798H288.421V237.419H293.011V239H286.483V227.168H293.011V228.749H288.421ZM303.674 227.185C304.932 227.185 306.031 227.429 306.972 227.916C307.924 228.392 308.655 229.083 309.165 229.99C309.686 230.885 309.947 231.934 309.947 233.135C309.947 234.336 309.686 235.379 309.165 236.263C308.655 237.147 307.924 237.827 306.972 238.303C306.031 238.768 304.932 239 303.674 239H299.815V227.185H303.674ZM303.674 237.419C305.056 237.419 306.116 237.045 306.853 236.297C307.589 235.549 307.958 234.495 307.958 233.135C307.958 231.764 307.589 230.693 306.853 229.922C306.116 229.151 305.056 228.766 303.674 228.766H301.753V237.419H303.674ZM313.805 228.749V232.217H317.885V233.798H313.805V237.419H318.395V239H311.867V227.168H318.395V228.749H313.805ZM140.59 260.067C140.59 258.911 140.857 257.874 141.389 256.956C141.933 256.038 142.664 255.324 143.582 254.814C144.512 254.293 145.526 254.032 146.625 254.032C147.883 254.032 149 254.344 149.974 254.967C150.96 255.579 151.674 256.452 152.116 257.585H149.787C149.481 256.962 149.056 256.497 148.512 256.191C147.968 255.885 147.339 255.732 146.625 255.732C145.843 255.732 145.146 255.908 144.534 256.259C143.922 256.61 143.441 257.115 143.089 257.772C142.749 258.429 142.579 259.194 142.579 260.067C142.579 260.94 142.749 261.705 143.089 262.362C143.441 263.019 143.922 263.529 144.534 263.892C145.146 264.243 145.843 264.419 146.625 264.419C147.339 264.419 147.968 264.266 148.512 263.96C149.056 263.654 149.481 263.189 149.787 262.566H152.116C151.674 263.699 150.96 264.572 149.974 265.184C149 265.796 147.883 266.102 146.625 266.102C145.515 266.102 144.5 265.847 143.582 265.337C142.664 264.816 141.933 264.096 141.389 263.178C140.857 262.26 140.59 261.223 140.59 260.067ZM163.82 254.185V266H161.882V260.832H156.323V266H154.385V254.185H156.323V259.251H161.882V254.185H163.82ZM168.309 255.749V259.217H172.389V260.798H168.309V264.419H172.899V266H166.371V254.168H172.899V255.749H168.309ZM177.156 264.317H182.647V266H174.861V264.487L180.335 255.868H174.861V254.185H182.647V255.698L177.156 264.317ZM199.365 254.185L194.928 266H192.684L188.23 254.185H190.304L193.806 264.011L197.325 254.185H199.365ZM206.374 266.119C205.275 266.119 204.261 265.864 203.331 265.354C202.413 264.833 201.682 264.113 201.138 263.195C200.606 262.266 200.339 261.223 200.339 260.067C200.339 258.911 200.606 257.874 201.138 256.956C201.682 256.038 202.413 255.324 203.331 254.814C204.261 254.293 205.275 254.032 206.374 254.032C207.485 254.032 208.499 254.293 209.417 254.814C210.347 255.324 211.078 256.038 211.61 256.956C212.143 257.874 212.409 258.911 212.409 260.067C212.409 261.223 212.143 262.266 211.61 263.195C211.078 264.113 210.347 264.833 209.417 265.354C208.499 265.864 207.485 266.119 206.374 266.119ZM206.374 264.436C207.156 264.436 207.853 264.26 208.465 263.909C209.077 263.546 209.553 263.036 209.893 262.379C210.245 261.71 210.42 260.94 210.42 260.067C210.42 259.194 210.245 258.429 209.893 257.772C209.553 257.115 209.077 256.61 208.465 256.259C207.853 255.908 207.156 255.732 206.374 255.732C205.592 255.732 204.895 255.908 204.283 256.259C203.671 256.61 203.19 257.115 202.838 257.772C202.498 258.429 202.328 259.194 202.328 260.067C202.328 260.94 202.498 261.71 202.838 262.379C203.19 263.036 203.671 263.546 204.283 263.909C204.895 264.26 205.592 264.436 206.374 264.436ZM216.238 254.185V261.716C216.238 262.611 216.47 263.286 216.935 263.739C217.411 264.192 218.068 264.419 218.907 264.419C219.757 264.419 220.414 264.192 220.879 263.739C221.355 263.286 221.593 262.611 221.593 261.716V254.185H223.531V261.682C223.531 262.645 223.321 263.461 222.902 264.13C222.482 264.799 221.921 265.297 221.219 265.626C220.516 265.955 219.74 266.119 218.89 266.119C218.04 266.119 217.263 265.955 216.561 265.626C215.869 265.297 215.32 264.799 214.912 264.13C214.504 263.461 214.3 262.645 214.3 261.682V254.185H216.238ZM229.947 266.119C229.153 266.119 228.439 265.983 227.805 265.711C227.17 265.428 226.671 265.031 226.309 264.521C225.946 264.011 225.765 263.416 225.765 262.736H227.839C227.884 263.246 228.082 263.665 228.434 263.994C228.796 264.323 229.301 264.487 229.947 264.487C230.615 264.487 231.137 264.328 231.511 264.011C231.885 263.682 232.072 263.263 232.072 262.753C232.072 262.356 231.953 262.033 231.715 261.784C231.488 261.535 231.199 261.342 230.848 261.206C230.508 261.07 230.032 260.923 229.42 260.764C228.649 260.56 228.02 260.356 227.533 260.152C227.057 259.937 226.649 259.608 226.309 259.166C225.969 258.724 225.799 258.135 225.799 257.398C225.799 256.718 225.969 256.123 226.309 255.613C226.649 255.103 227.125 254.712 227.737 254.44C228.349 254.168 229.057 254.032 229.862 254.032C231.006 254.032 231.941 254.321 232.667 254.899C233.403 255.466 233.811 256.248 233.891 257.245H231.749C231.715 256.814 231.511 256.446 231.137 256.14C230.763 255.834 230.27 255.681 229.658 255.681C229.102 255.681 228.649 255.823 228.298 256.106C227.946 256.389 227.771 256.797 227.771 257.33C227.771 257.693 227.878 257.993 228.094 258.231C228.32 258.458 228.604 258.639 228.944 258.775C229.284 258.911 229.748 259.058 230.338 259.217C231.12 259.432 231.754 259.648 232.242 259.863C232.74 260.078 233.16 260.413 233.5 260.866C233.851 261.308 234.027 261.903 234.027 262.651C234.027 263.252 233.862 263.818 233.534 264.351C233.216 264.884 232.746 265.314 232.123 265.643C231.511 265.96 230.785 266.119 229.947 266.119Z" fill="white"/>
<g filter="url(#filter4_d_41_3)">
<path d="M0 739H375V797C375 805.284 368.284 812 360 812H15C6.71574 812 0 805.284 0 797V739Z" fill="white"/>
</g>
<rect x="38" y="754" width="44" height="44" rx="11" fill="#04BDAF"/>
<g clip-path="url(#clip4_41_3)">
<path d="M70.7609 774.822L68.8442 772.906L61.1775 765.239C60.9978 765.059 60.7541 764.959 60.5 764.959C60.2459 764.959 60.0022 765.059 59.8224 765.239L52.1558 772.906L50.2391 774.822C50.0645 775.003 49.9679 775.245 49.9701 775.497C49.9723 775.748 50.0731 775.988 50.2508 776.166C50.4285 776.344 50.6688 776.444 50.9201 776.447C51.1714 776.449 51.4134 776.352 51.5942 776.178L51.875 775.897V785.083C51.875 785.337 51.976 785.581 52.1557 785.761C52.3354 785.941 52.5792 786.042 52.8333 786.042H68.1667C68.4208 786.042 68.6646 785.941 68.8443 785.761C69.024 785.581 69.125 785.337 69.125 785.083V775.897L69.4058 776.178C69.5865 776.352 69.8286 776.449 70.0799 776.447C70.3311 776.444 70.5715 776.344 70.7492 776.166C70.9269 775.988 71.0277 775.748 71.0298 775.497C71.032 775.245 70.9354 775.003 70.7609 774.822ZM67.2083 784.125H53.7917V773.98L60.5 767.272L67.2083 773.98V784.125Z" fill="white"/>
</g>
<path d="M229.5 772.625C229.879 772.625 230.25 772.737 230.565 772.948C230.88 773.159 231.126 773.458 231.271 773.808C231.416 774.158 231.454 774.544 231.38 774.916C231.306 775.287 231.123 775.629 230.855 775.897C230.587 776.165 230.246 776.348 229.874 776.422C229.502 776.495 229.117 776.458 228.767 776.312C228.416 776.167 228.117 775.922 227.906 775.607C227.696 775.291 227.583 774.921 227.583 774.542C227.583 774.033 227.785 773.546 228.145 773.186C228.504 772.827 228.992 772.625 229.5 772.625ZM229.5 770.708C228.742 770.708 228.001 770.933 227.37 771.354C226.74 771.776 226.249 772.374 225.958 773.075C225.668 773.775 225.592 774.546 225.74 775.29C225.888 776.033 226.253 776.716 226.789 777.252C227.326 777.788 228.009 778.153 228.752 778.301C229.496 778.449 230.267 778.373 230.967 778.083C231.667 777.793 232.266 777.302 232.687 776.671C233.109 776.041 233.333 775.3 233.333 774.542C233.333 773.525 232.929 772.55 232.211 771.831C231.492 771.112 230.517 770.708 229.5 770.708ZM231.532 784.7L233.046 783.186C233.146 783.1 233.228 782.994 233.285 782.875C233.343 782.756 233.375 782.627 233.38 782.495C233.385 782.363 233.363 782.231 233.315 782.108C233.267 781.985 233.194 781.874 233.1 781.78C233.007 781.687 232.895 781.614 232.772 781.566C232.649 781.517 232.517 781.495 232.385 781.5C232.254 781.505 232.124 781.538 232.005 781.595C231.886 781.653 231.78 781.734 231.695 781.835L230.18 783.349C230.091 783.439 229.985 783.51 229.869 783.559C229.752 783.607 229.627 783.632 229.5 783.632C229.373 783.632 229.248 783.607 229.131 783.559C229.015 783.51 228.909 783.439 228.82 783.349L224.756 779.333C223.825 778.392 223.193 777.197 222.94 775.898C222.686 774.598 222.823 773.253 223.333 772.031C223.843 770.809 224.702 769.766 225.804 769.032C226.906 768.298 228.2 767.906 229.524 767.906C230.848 767.906 232.142 768.298 233.244 769.032C234.345 769.766 235.205 770.809 235.715 772.031C236.225 773.253 236.362 774.598 236.108 775.898C235.855 777.197 235.223 778.392 234.292 779.333C234.135 779.517 234.053 779.752 234.062 779.994C234.071 780.235 234.171 780.464 234.342 780.634C234.513 780.805 234.741 780.905 234.983 780.914C235.224 780.924 235.46 780.842 235.643 780.685C236.85 779.479 237.673 777.942 238.006 776.269C238.34 774.595 238.17 772.86 237.517 771.284C236.865 769.707 235.759 768.36 234.341 767.411C232.922 766.463 231.254 765.957 229.548 765.957C227.842 765.957 226.174 766.463 224.755 767.411C223.336 768.36 222.231 769.707 221.578 771.284C220.926 772.86 220.756 774.595 221.089 776.269C221.423 777.942 222.246 779.479 223.453 780.685L227.516 784.748C228.055 785.286 228.786 785.589 229.548 785.589C230.31 785.589 231.041 785.286 231.58 784.748L231.532 784.7Z" fill="#4A4763" fill-opacity="0.65"/>
<path fill-rule="evenodd" clip-rule="evenodd" d="M149.214 781.181C148.257 781.703 147.159 782 145.991 782C142.266 782 139.241 778.975 139.241 775.25C139.241 771.525 142.266 768.5 145.991 768.5C149.717 768.5 152.741 771.525 152.741 775.25C152.741 776.992 152.08 778.581 150.995 779.779L155.795 784.58C156.234 785.018 156.234 785.732 155.795 786.17C155.357 786.61 154.643 786.61 154.205 786.17L149.214 781.181ZM145.991 770.75C148.475 770.75 150.491 772.766 150.491 775.25C150.491 777.734 148.475 779.75 145.991 779.75C143.508 779.75 141.491 777.734 141.491 775.25C141.491 772.766 143.508 770.75 145.991 770.75ZM160.625 777.5H158.375C157.754 777.5 157.25 778.004 157.25 778.625C157.25 779.246 157.754 779.75 158.375 779.75H160.625C161.246 779.75 161.75 779.246 161.75 778.625C161.75 778.004 161.246 777.5 160.625 777.5ZM160.625 773H156.125C155.504 773 155 773.504 155 774.125C155 774.746 155.504 775.25 156.125 775.25H160.625C161.246 775.25 161.75 774.746 161.75 774.125C161.75 773.504 161.246 773 160.625 773ZM160.625 768.5H155C154.379 768.5 153.875 769.004 153.875 769.625C153.875 770.246 154.379 770.75 155 770.75H160.625C161.246 770.75 161.75 770.246 161.75 769.625C161.75 769.004 161.246 768.5 160.625 768.5Z" fill="#4A4763" fill-opacity="0.65"/>
<g clip-path="url(#clip5_41_3)">
<path fill-rule="evenodd" clip-rule="evenodd" d="M179.23 119.656V123.426C179.23 124.49 180.081 125.355 181.129 125.355C182.178 125.355 183.029 124.49 183.029 123.426V119.656H183.559H186.741C187.79 119.656 188.641 118.792 188.641 117.727C188.641 116.663 187.79 115.799 186.741 115.799H183.337H183.017V112.029C183.017 110.964 182.165 110.1 181.117 110.1C180.069 110.1 179.218 110.964 179.218 112.029V115.799H178.774H175.505C174.457 115.799 173.606 116.663 173.606 117.727C173.606 118.792 174.457 119.656 175.505 119.656H178.774H179.23Z" fill="white"/>
<path fill-rule="evenodd" clip-rule="evenodd" d="M179.242 126.056V134.384C179.242 137.904 182.054 140.759 185.52 140.759C188.986 140.759 191.798 137.904 191.798 134.384V132.907V132.406H188V132.907V134.434C188 135.825 186.889 136.952 185.52 136.952C184.151 136.952 183.041 135.825 183.041 134.434V126.006V125.467C182.56 125.981 181.882 126.294 181.129 126.294C180.389 126.294 179.723 125.981 179.242 125.492V126.056Z" fill="white"/>
<path fill-rule="evenodd" clip-rule="evenodd" d="M189.307 119.656H195.227C196.596 119.656 197.707 120.783 197.707 122.173C197.707 123.564 196.596 124.691 195.227 124.691H188.468H188V128.548H188.468H195.129C198.595 128.548 201.407 125.693 201.407 122.173C201.407 118.654 198.595 115.799 195.129 115.799H189.307H188.69C189.184 116.287 189.492 116.976 189.492 117.727C189.492 118.479 189.184 119.168 188.69 119.656H189.307Z" fill="white"/>
<path fill-rule="evenodd" clip-rule="evenodd" d="M203.01 108.247C211.57 116.926 211.57 131.053 203.01 139.745L187.506 155.487L172.002 139.745C163.442 131.066 163.442 116.938 172.002 108.247C176.134 104.039 181.647 101.722 187.506 101.722C193.352 101.722 198.866 104.039 203.01 108.247ZM206.254 104.89C216.602 115.385 216.602 132.468 206.254 142.963L187.506 162L168.758 142.963C158.41 132.468 158.41 115.385 168.758 104.89C173.753 99.8054 180.426 97 187.506 97C194.586 97 201.246 99.8054 206.254 104.89Z" fill="white"/>
</g>
<path d="M139 35.0153V36.2435H131.325V40.8489H138.261V42.0617H131.325V47.8953H130V35H139V35.0153Z" fill="white"/>
<path d="M141.944 47.9107V35.0154H143.269V47.9107H141.944Z" fill="white"/>
<path d="M148.139 35.0154L156.014 45.9457V35.0154H157.309V47.9107H155.953L148.031 36.9803V47.9107H146.737V35.0154H148.139Z" fill="white"/>
<path d="M160.53 47.9107V35.0154H166.248C167.511 35.0154 168.606 35.4605 169.499 36.3356C170.393 37.226 170.84 38.2699 170.84 39.4673C170.84 40.6954 170.393 41.724 169.515 42.5683C168.636 43.4127 167.542 43.8425 166.248 43.8425L163.319 43.8578V47.8953H160.53V47.9107ZM163.319 41.4016L166.063 41.3862C166.664 41.3862 167.172 41.1867 167.558 40.8029C167.958 40.4037 168.143 39.9432 168.143 39.3905C168.143 38.8532 167.943 38.408 167.558 38.0396C167.172 37.6865 166.664 37.5023 166.047 37.5023L163.304 37.5177V41.4016H163.319Z" fill="white"/>
<path d="M176.111 35.0154V40.2042H181.921V35.0154H184.695V47.9107H181.921V42.6911H176.111V47.9107H173.337V35.0154H176.111Z" fill="white"/>
<path d="M187.053 47.9107L192.016 35.0154H194.867L199.968 47.9107H197.101L196.161 45.4237H190.829L189.92 47.9107H187.053ZM195.252 43.0289L193.418 38.3006L191.676 43.0289H195.252Z" fill="white"/>
<path d="M202.233 47.9107V35.0154H207.951C209.215 35.0154 210.309 35.4605 211.203 36.3356C212.097 37.226 212.544 38.2699 212.544 39.4673C212.544 40.2963 212.312 41.0792 211.835 41.7854C211.357 42.4916 210.74 43.0135 209.954 43.3205L212.729 47.9107H209.77L207.196 43.6736H205.007V47.9107H202.233ZM207.951 41.2788C208.475 41.2788 208.937 41.0946 209.307 40.7261C209.677 40.3577 209.862 39.9125 209.862 39.3752C209.862 38.8532 209.677 38.408 209.307 38.0396C208.937 37.6712 208.49 37.5023 207.951 37.5023H205.007V41.2788H207.951Z" fill="white"/>
<path d="M217.907 35.0154L222.515 43.9653L227.046 35.0154H229.727V47.9107H227.046V40.3577L223.255 47.9107H221.683L217.907 40.3577V47.9107H215.225V35.0154H217.907Z" fill="white"/>
<path d="M232.085 47.9107L237.048 35.0154H239.899L245 47.9107H242.133L241.193 45.4237H235.861L234.952 47.9107H232.085ZM240.284 43.0289L238.45 38.3006L236.709 43.0289H240.284Z" fill="white"/>
<path d="M114.949 313.608C114.949 312.152 115.264 310.857 115.894 309.723C116.524 308.575 117.399 307.686 118.519 307.056C119.653 306.412 120.934 306.09 122.362 306.09C124.112 306.09 125.61 306.552 126.856 307.476C128.102 308.4 128.935 309.66 129.355 311.256H125.407C125.113 310.64 124.693 310.171 124.147 309.849C123.615 309.527 123.006 309.366 122.32 309.366C121.214 309.366 120.318 309.751 119.632 310.521C118.946 311.291 118.603 312.32 118.603 313.608C118.603 314.896 118.946 315.925 119.632 316.695C120.318 317.465 121.214 317.85 122.32 317.85C123.006 317.85 123.615 317.689 124.147 317.367C124.693 317.045 125.113 316.576 125.407 315.96H129.355C128.935 317.556 128.102 318.816 126.856 319.74C125.61 320.65 124.112 321.105 122.362 321.105C120.934 321.105 119.653 320.79 118.519 320.16C117.399 319.516 116.524 318.627 115.894 317.493C115.264 316.359 114.949 315.064 114.949 313.608ZM140.731 318.396H135.229L134.347 321H130.588L135.922 306.258H140.08L145.414 321H141.613L140.731 318.396ZM139.807 315.624L137.98 310.227L136.174 315.624H139.807ZM152.372 321.147C151.294 321.147 150.328 320.972 149.474 320.622C148.62 320.272 147.934 319.754 147.416 319.068C146.912 318.382 146.646 317.556 146.618 316.59H150.44C150.496 317.136 150.685 317.556 151.007 317.85C151.329 318.13 151.749 318.27 152.267 318.27C152.799 318.27 153.219 318.151 153.527 317.913C153.835 317.661 153.989 317.318 153.989 316.884C153.989 316.52 153.863 316.219 153.611 315.981C153.373 315.743 153.072 315.547 152.708 315.393C152.358 315.239 151.854 315.064 151.196 314.868C150.244 314.574 149.467 314.28 148.865 313.986C148.263 313.692 147.745 313.258 147.311 312.684C146.877 312.11 146.66 311.361 146.66 310.437C146.66 309.065 147.157 307.994 148.151 307.224C149.145 306.44 150.44 306.048 152.036 306.048C153.66 306.048 154.969 306.44 155.963 307.224C156.957 307.994 157.489 309.072 157.559 310.458H153.674C153.646 309.982 153.471 309.611 153.149 309.345C152.827 309.065 152.414 308.925 151.91 308.925C151.476 308.925 151.126 309.044 150.86 309.282C150.594 309.506 150.461 309.835 150.461 310.269C150.461 310.745 150.685 311.116 151.133 311.382C151.581 311.648 152.281 311.935 153.233 312.243C154.185 312.565 154.955 312.873 155.543 313.167C156.145 313.461 156.663 313.888 157.097 314.448C157.531 315.008 157.748 315.729 157.748 316.611C157.748 317.451 157.531 318.214 157.097 318.9C156.677 319.586 156.061 320.132 155.249 320.538C154.437 320.944 153.478 321.147 152.372 321.147ZM169.135 318.396H163.633L162.751 321H158.992L164.326 306.258H168.484L173.818 321H170.017L169.135 318.396ZM168.211 315.624L166.384 310.227L164.578 315.624H168.211ZM184.366 313.44C185.22 313.622 185.906 314.049 186.424 314.721C186.942 315.379 187.201 316.135 187.201 316.989C187.201 318.221 186.767 319.201 185.899 319.929C185.045 320.643 183.848 321 182.308 321H175.441V306.258H182.077C183.575 306.258 184.744 306.601 185.584 307.287C186.438 307.973 186.865 308.904 186.865 310.08C186.865 310.948 186.634 311.669 186.172 312.243C185.724 312.817 185.122 313.216 184.366 313.44ZM179.032 312.222H181.384C181.972 312.222 182.42 312.096 182.728 311.844C183.05 311.578 183.211 311.193 183.211 310.689C183.211 310.185 183.05 309.8 182.728 309.534C182.42 309.268 181.972 309.135 181.384 309.135H179.032V312.222ZM181.678 318.102C182.28 318.102 182.742 317.969 183.064 317.703C183.4 317.423 183.568 317.024 183.568 316.506C183.568 315.988 183.393 315.582 183.043 315.288C182.707 314.994 182.238 314.847 181.636 314.847H179.032V318.102H181.678ZM192.875 318.228H197.579V321H189.284V306.258H192.875V318.228ZM208.469 318.396H202.967L202.085 321H198.326L203.66 306.258H207.818L213.152 321H209.351L208.469 318.396ZM207.545 315.624L205.718 310.227L203.912 315.624H207.545ZM227.963 321H224.372L218.366 311.907V321H214.775V306.258H218.366L224.372 315.393V306.258H227.963V321ZM229.957 313.608C229.957 312.152 230.272 310.857 230.902 309.723C231.532 308.575 232.407 307.686 233.527 307.056C234.661 306.412 235.942 306.09 237.37 306.09C239.12 306.09 240.618 306.552 241.864 307.476C243.11 308.4 243.943 309.66 244.363 311.256H240.415C240.121 310.64 239.701 310.171 239.155 309.849C238.623 309.527 238.014 309.366 237.328 309.366C236.222 309.366 235.326 309.751 234.64 310.521C233.954 311.291 233.611 312.32 233.611 313.608C233.611 314.896 233.954 315.925 234.64 316.695C235.326 317.465 236.222 317.85 237.328 317.85C238.014 317.85 238.623 317.689 239.155 317.367C239.701 317.045 240.121 316.576 240.415 315.96H244.363C243.943 317.556 243.11 318.816 241.864 319.74C240.618 320.65 239.12 321.105 237.37 321.105C235.942 321.105 234.661 320.79 233.527 320.16C232.407 319.516 231.532 318.627 230.902 317.493C230.272 316.359 229.957 315.064 229.957 313.608ZM255.739 318.396H250.237L249.355 321H245.596L250.93 306.258H255.088L260.422 321H256.621L255.739 318.396ZM254.815 315.624L252.988 310.227L251.182 315.624H254.815Z" fill="#04BDAF"/>
<g clip-path="url(#clip6_41_3)">
<path d="M323.152 767.804C320.651 765.304 316.581 765.304 314.081 767.804L313.5 768.385L312.919 767.804C310.419 765.303 306.349 765.303 303.848 767.804C301.398 770.254 301.382 774.138 303.811 776.838C306.027 779.3 312.561 784.618 312.838 784.843C313.026 784.996 313.252 785.071 313.478 785.071C313.485 785.071 313.492 785.071 313.5 785.071C313.732 785.081 313.967 785.002 314.161 784.843C314.438 784.618 320.973 779.3 323.189 776.838C325.618 774.138 325.602 770.254 323.152 767.804ZM321.679 775.479C319.952 777.398 315.204 781.356 313.5 782.76C311.795 781.356 307.048 777.399 305.321 775.48C303.626 773.596 303.611 770.914 305.284 769.24C306.139 768.386 307.261 767.959 308.384 767.959C309.506 767.959 310.628 768.386 311.483 769.24L312.76 770.517C312.912 770.669 313.103 770.76 313.305 770.792C313.631 770.862 313.985 770.771 314.239 770.518L315.516 769.24C317.226 767.531 320.007 767.532 321.716 769.24C323.389 770.914 323.373 773.596 321.679 775.479Z" fill="#4A4763" fill-opacity="0.65"/>
</g>
</g>
<defs>
<filter id="filter0_d_41_3" x="9" y="382" width="193" height="193" filterUnits="userSpaceOnUse" color-interpolation-filters="sRGB">
<feFlood flood-opacity="0" result="BackgroundImageFix"/>
<feColorMatrix in="SourceAlpha" type="matrix" values="0 0 0 0 0 0 0 0 0 0 0 0 0 0 0 0 0 0 127 0" result="hardAlpha"/>
<feOffset dx="-2" dy="3"/>
<feGaussianBlur stdDeviation="13.5"/>
<feComposite in2="hardAlpha" operator="out"/>
<feColorMatrix type="matrix" values="0 0 0 0 0.913725 0 0 0 0 0.933333 0 0 0 0 0.929412 0 0 0 1 0"/>
<feBlend mode="normal" in2="BackgroundImageFix" result="effect1_dropShadow_41_3"/>
<feBlend mode="normal" in="SourceGraphic" in2="effect1_dropShadow_41_3" result="shape"/>
</filter>
<filter id="filter1_d_41_3" x="169" y="382" width="193" height="193" filterUnits="userSpaceOnUse" color-interpolation-filters="sRGB">
<feFlood flood-opacity="0" result="BackgroundImageFix"/>
<feColorMatrix in="SourceAlpha" type="matrix" values="0 0 0 0 0 0 0 0 0 0 0 0 0 0 0 0 0 0 127 0" result="hardAlpha"/>
<feOffset dx="-2" dy="3"/>
<feGaussianBlur stdDeviation="13.5"/>
<feComposite in2="hardAlpha" operator="out"/>
<feColorMatrix type="matrix" values="0 0 0 0 0.913725 0 0 0 0 0.933333 0 0 0 0 0.929412 0 0 0 1 0"/>
<feBlend mode="normal" in2="BackgroundImageFix" result="effect1_dropShadow_41_3"/>
<feBlend mode="normal" in="SourceGraphic" in2="effect1_dropShadow_41_3" result="shape"/>
</filter>
<filter id="filter2_d_41_3" x="9" y="542" width="193" height="193" filterUnits="userSpaceOnUse" color-interpolation-filters="sRGB">
<feFlood flood-opacity="0" result="BackgroundImageFix"/>
<feColorMatrix in="SourceAlpha" type="matrix" values="0 0 0 0 0 0 0 0 0 0 0 0 0 0 0 0 0 0 127 0" result="hardAlpha"/>
<feOffset dx="-2" dy="3"/>
<feGaussianBlur stdDeviation="13.5"/>
<feComposite in2="hardAlpha" operator="out"/>
<feColorMatrix type="matrix" values="0 0 0 0 0.913725 0 0 0 0 0.933333 0 0 0 0 0.929412 0 0 0 1 0"/>
<feBlend mode="normal" in2="BackgroundImageFix" result="effect1_dropShadow_41_3"/>
<feBlend mode="normal" in="SourceGraphic" in2="effect1_dropShadow_41_3" result="shape"/>
</filter>
<filter id="filter3_d_41_3" x="169" y="542" width="193" height="193" filterUnits="userSpaceOnUse" color-interpolation-filters="sRGB">
<feFlood flood-opacity="0" result="BackgroundImageFix"/>
<feColorMatrix in="SourceAlpha" type="matrix" values="0 0 0 0 0 0 0 0 0 0 0 0 0 0 0 0 0 0 127 0" result="hardAlpha"/>
<feOffset dx="-2" dy="3"/>
<feGaussianBlur stdDeviation="13.5"/>
<feComposite in2="hardAlpha" operator="out"/>
<feColorMatrix type="matrix" values="0 0 0 0 0.913725 0 0 0 0 0.933333 0 0 0 0 0.929412 0 0 0 1 0"/>
<feBlend mode="normal" in2="BackgroundImageFix" result="effect1_dropShadow_41_3"/>
<feBlend mode="normal" in="SourceGraphic" in2="effect1_dropShadow_41_3" result="shape"/>
</filter>
<filter id="filter4_d_41_3" x="-34" y="723" width="417" height="115" filterUnits="userSpaceOnUse" color-interpolation-filters="sRGB">
<feFlood flood-opacity="0" result="BackgroundImageFix"/>
<feColorMatrix in="SourceAlpha" type="matrix" values="0 0 0 0 0 0 0 0 0 0 0 0 0 0 0 0 0 0 127 0" result="hardAlpha"/>
<feOffset dx="-13" dy="5"/>
<feGaussianBlur stdDeviation="10.5"/>
<feComposite in2="hardAlpha" operator="out"/>
<feColorMatrix type="matrix" values="0 0 0 0 0.639216 0 0 0 0 0.635294 0 0 0 0 0.721569 0 0 0 0.45 0"/>
<feBlend mode="normal" in2="BackgroundImageFix" result="effect1_dropShadow_41_3"/>
<feBlend mode="normal" in="SourceGraphic" in2="effect1_dropShadow_41_3" result="shape"/>
</filter>
<linearGradient id="paint0_linear_41_3" x1="490" y1="503" x2="494.623" y2="-104.395" gradientUnits="userSpaceOnUse">
<stop stop-color="#025FAC"/>
<stop offset="1" stop-color="#04BDAF"/>
</linearGradient>
<clipPath id="clip0_41_3">
<rect width="375" height="812" rx="21" fill="white"/>
</clipPath>
<clipPath id="clip1_41_3">
<rect width="39" height="39" fill="white" transform="translate(88 432)"/>
</clipPath>
<clipPath id="clip2_41_3">
<rect width="39" height="39" fill="white" transform="translate(88 594)"/>
</clipPath>
<clipPath id="clip3_41_3">
<rect width="31" height="31" fill="white" transform="translate(252 596)"/>
</clipPath>
<clipPath id="clip4_41_3">
<rect width="23" height="23" fill="white" transform="translate(49 764)"/>
</clipPath>
<clipPath id="clip5_41_3">
<rect width="53" height="65" fill="white" transform="translate(161 97)"/>
</clipPath>
<clipPath id="clip6_41_3">
<rect width="23" height="23" fill="white" transform="translate(302 764)"/>
</clipPath>
</defs>
</svg>
